# xmcd
#
# Track frame offsets:
#	150
#	11935
#	28817
#
# Disc length: 540 seconds
#
# Revision: 1
# Processed by: cddbd v1.4b42PL1 Copyright (c) Steve Scherf et al.
# Submitted via: audiograbber 1.80
#
DISCID=20021a03
DTITLE=Linda Feller - Ich kann ohne Dich nicht leben (Maxi-CD)
DYEAR=1900
DGENRE=
TTITLE0=Ich kann ohne Dich nicht leben
TTITLE1=Meine Tränen wirst Du nie mehr seh'n
TTITLE2=Es gibr Männer, soviel Männer
EXTD=
EXTT0=
EXTT1=
EXTT2=
PLAYORDER=
